<mxfile host="Electron" agent="Mozilla/5.0 (Windows NT 10.0; Win64; x64) AppleWebKit/537.36 (KHTML, like Gecko) draw.io/26.0.4 Chrome/128.0.6613.186 Electron/32.2.5 Safari/537.36" version="26.0.4">
  <diagram name="Page-1" id="Ote_rbRMeqEq33nfodTz">
    <mxGraphModel dx="1302" dy="758" grid="1" gridSize="10" guides="1" tooltips="1" connect="1" arrows="1" fold="1" page="1" pageScale="1" pageWidth="850" pageHeight="1100" math="0" shadow="0">
      <root>
        <mxCell id="0" />
        <mxCell id="1" parent="0" />
        <mxCell id="Zyzf6QsQvkzmDQWIBxni-1" value="" style="rounded=0;whiteSpace=wrap;html=1;strokeColor=light-dark(#000000,#575757);" vertex="1" parent="1">
          <mxGeometry x="485" y="393" width="190" height="90" as="geometry" />
        </mxCell>
        <mxCell id="Zyzf6QsQvkzmDQWIBxni-2" value="" style="rounded=0;whiteSpace=wrap;html=1;strokeColor=#575757;" vertex="1" parent="1">
          <mxGeometry x="485" y="283" width="190" height="85" as="geometry" />
        </mxCell>
        <mxCell id="Zyzf6QsQvkzmDQWIBxni-3" value="global" style="text;html=1;align=left;verticalAlign=middle;resizable=0;points=[];autosize=1;strokeColor=none;fillColor=none;" vertex="1" parent="1">
          <mxGeometry x="485" y="258" width="60" height="30" as="geometry" />
        </mxCell>
        <mxCell id="Zyzf6QsQvkzmDQWIBxni-6" value="main" style="text;html=1;align=left;verticalAlign=middle;resizable=0;points=[];autosize=1;strokeColor=none;fillColor=none;" vertex="1" parent="1">
          <mxGeometry x="485" y="368" width="50" height="30" as="geometry" />
        </mxCell>
        <mxCell id="Zyzf6QsQvkzmDQWIBxni-9" value="" style="group" vertex="1" connectable="0" parent="1">
          <mxGeometry x="505" y="283" width="59" height="88" as="geometry" />
        </mxCell>
        <mxCell id="Zyzf6QsQvkzmDQWIBxni-10" value="g" style="text;html=1;align=center;verticalAlign=middle;resizable=0;points=[];autosize=1;strokeColor=none;fillColor=none;" vertex="1" parent="Zyzf6QsQvkzmDQWIBxni-9">
          <mxGeometry x="8" width="30" height="30" as="geometry" />
        </mxCell>
        <mxCell id="Zyzf6QsQvkzmDQWIBxni-11" value="" style="group" vertex="1" connectable="0" parent="Zyzf6QsQvkzmDQWIBxni-9">
          <mxGeometry y="24" width="59" height="64" as="geometry" />
        </mxCell>
        <mxCell id="Zyzf6QsQvkzmDQWIBxni-12" value="39" style="rounded=0;whiteSpace=wrap;html=1;fillColor=#60a917;fontColor=#ffffff;strokeColor=#2D7600;" vertex="1" parent="Zyzf6QsQvkzmDQWIBxni-11">
          <mxGeometry width="46" height="40" as="geometry" />
        </mxCell>
        <mxCell id="Zyzf6QsQvkzmDQWIBxni-13" value="int" style="text;html=1;align=center;verticalAlign=middle;resizable=0;points=[];autosize=1;strokeColor=none;fillColor=none;" vertex="1" parent="Zyzf6QsQvkzmDQWIBxni-11">
          <mxGeometry x="19" y="34" width="40" height="30" as="geometry" />
        </mxCell>
        <mxCell id="Zyzf6QsQvkzmDQWIBxni-14" value="" style="group" vertex="1" connectable="0" parent="1">
          <mxGeometry x="505" y="393" width="57" height="89" as="geometry" />
        </mxCell>
        <mxCell id="Zyzf6QsQvkzmDQWIBxni-15" value="&lt;font style=&quot;font-size: 23px;&quot;&gt;●&lt;/font&gt;" style="rounded=0;whiteSpace=wrap;html=1;fillColor=#1ba1e2;fontColor=#ffffff;strokeColor=#006EAF;" vertex="1" parent="Zyzf6QsQvkzmDQWIBxni-14">
          <mxGeometry y="25" width="46" height="40" as="geometry" />
        </mxCell>
        <mxCell id="Zyzf6QsQvkzmDQWIBxni-16" value="ptr" style="text;html=1;align=center;verticalAlign=middle;resizable=0;points=[];autosize=1;strokeColor=none;fillColor=none;" vertex="1" parent="Zyzf6QsQvkzmDQWIBxni-14">
          <mxGeometry x="2" width="40" height="30" as="geometry" />
        </mxCell>
        <mxCell id="Zyzf6QsQvkzmDQWIBxni-17" value="int*" style="text;html=1;align=center;verticalAlign=middle;resizable=0;points=[];autosize=1;strokeColor=none;fillColor=none;" vertex="1" parent="Zyzf6QsQvkzmDQWIBxni-14">
          <mxGeometry x="17" y="59" width="40" height="30" as="geometry" />
        </mxCell>
        <mxCell id="Zyzf6QsQvkzmDQWIBxni-18" value="" style="endArrow=classic;html=1;rounded=0;entryX=0;entryY=0;entryDx=0;entryDy=0;" edge="1" parent="1" target="Zyzf6QsQvkzmDQWIBxni-22">
          <mxGeometry width="50" height="50" relative="1" as="geometry">
            <mxPoint x="531" y="438" as="sourcePoint" />
            <mxPoint x="575" y="408" as="targetPoint" />
          </mxGeometry>
        </mxCell>
        <mxCell id="Zyzf6QsQvkzmDQWIBxni-19" value="" style="group" vertex="1" connectable="0" parent="1">
          <mxGeometry x="602" y="394" width="59" height="88" as="geometry" />
        </mxCell>
        <mxCell id="Zyzf6QsQvkzmDQWIBxni-20" value="y" style="text;html=1;align=center;verticalAlign=middle;resizable=0;points=[];autosize=1;strokeColor=none;fillColor=none;" vertex="1" parent="Zyzf6QsQvkzmDQWIBxni-19">
          <mxGeometry x="8" width="30" height="30" as="geometry" />
        </mxCell>
        <mxCell id="Zyzf6QsQvkzmDQWIBxni-21" value="" style="group" vertex="1" connectable="0" parent="Zyzf6QsQvkzmDQWIBxni-19">
          <mxGeometry y="24" width="59" height="64" as="geometry" />
        </mxCell>
        <mxCell id="Zyzf6QsQvkzmDQWIBxni-22" value="42" style="rounded=0;whiteSpace=wrap;html=1;fillColor=#1ba1e2;fontColor=#ffffff;strokeColor=#006EAF;" vertex="1" parent="Zyzf6QsQvkzmDQWIBxni-21">
          <mxGeometry width="46" height="40" as="geometry" />
        </mxCell>
        <mxCell id="Zyzf6QsQvkzmDQWIBxni-23" value="int" style="text;html=1;align=center;verticalAlign=middle;resizable=0;points=[];autosize=1;strokeColor=none;fillColor=none;" vertex="1" parent="Zyzf6QsQvkzmDQWIBxni-21">
          <mxGeometry x="19" y="34" width="40" height="30" as="geometry" />
        </mxCell>
        <mxCell id="Zyzf6QsQvkzmDQWIBxni-24" value="" style="rounded=0;whiteSpace=wrap;html=1;strokeColor=light-dark(#000000,#575757);" vertex="1" parent="1">
          <mxGeometry x="485" y="513" width="190" height="90" as="geometry" />
        </mxCell>
        <mxCell id="Zyzf6QsQvkzmDQWIBxni-25" value="a:1" style="text;html=1;align=left;verticalAlign=middle;resizable=0;points=[];autosize=1;strokeColor=none;fillColor=none;" vertex="1" parent="1">
          <mxGeometry x="485" y="485" width="40" height="30" as="geometry" />
        </mxCell>
        <mxCell id="Zyzf6QsQvkzmDQWIBxni-26" value="b:1" style="text;html=1;align=left;verticalAlign=middle;resizable=0;points=[];autosize=1;strokeColor=none;fillColor=none;" vertex="1" parent="1">
          <mxGeometry x="485" y="723" width="40" height="30" as="geometry" />
        </mxCell>
        <mxCell id="Zyzf6QsQvkzmDQWIBxni-27" value="" style="rounded=0;whiteSpace=wrap;html=1;strokeColor=light-dark(#000000,#575757);" vertex="1" parent="1">
          <mxGeometry x="485" y="749" width="190" height="90" as="geometry" />
        </mxCell>
        <mxCell id="Zyzf6QsQvkzmDQWIBxni-28" value="" style="group" vertex="1" connectable="0" parent="1">
          <mxGeometry x="505" y="515" width="57" height="89" as="geometry" />
        </mxCell>
        <mxCell id="Zyzf6QsQvkzmDQWIBxni-29" value="&lt;font style=&quot;font-size: 23px;&quot;&gt;●&lt;/font&gt;" style="rounded=0;whiteSpace=wrap;html=1;fillColor=#1ba1e2;fontColor=#ffffff;strokeColor=#006EAF;" vertex="1" parent="Zyzf6QsQvkzmDQWIBxni-28">
          <mxGeometry y="25" width="46" height="40" as="geometry" />
        </mxCell>
        <mxCell id="Zyzf6QsQvkzmDQWIBxni-30" value="x" style="text;html=1;align=center;verticalAlign=middle;resizable=0;points=[];autosize=1;strokeColor=none;fillColor=none;" vertex="1" parent="Zyzf6QsQvkzmDQWIBxni-28">
          <mxGeometry x="7" width="30" height="30" as="geometry" />
        </mxCell>
        <mxCell id="Zyzf6QsQvkzmDQWIBxni-31" value="int*" style="text;html=1;align=center;verticalAlign=middle;resizable=0;points=[];autosize=1;strokeColor=none;fillColor=none;" vertex="1" parent="Zyzf6QsQvkzmDQWIBxni-28">
          <mxGeometry x="17" y="59" width="40" height="30" as="geometry" />
        </mxCell>
        <mxCell id="Zyzf6QsQvkzmDQWIBxni-32" value="" style="group" vertex="1" connectable="0" parent="1">
          <mxGeometry x="602" y="515" width="64" height="93" as="geometry" />
        </mxCell>
        <mxCell id="Zyzf6QsQvkzmDQWIBxni-33" value="" style="group" vertex="1" connectable="0" parent="Zyzf6QsQvkzmDQWIBxni-32">
          <mxGeometry y="24" width="64" height="69" as="geometry" />
        </mxCell>
        <mxCell id="Zyzf6QsQvkzmDQWIBxni-34" value="39" style="rounded=0;whiteSpace=wrap;html=1;fillColor=#a20025;fontColor=#ffffff;strokeColor=#6F0000;" vertex="1" parent="Zyzf6QsQvkzmDQWIBxni-33">
          <mxGeometry width="46" height="40" as="geometry" />
        </mxCell>
        <mxCell id="Zyzf6QsQvkzmDQWIBxni-35" value="" style="endArrow=classic;html=1;rounded=0;entryX=0;entryY=0;entryDx=0;entryDy=0;" edge="1" parent="1" target="Zyzf6QsQvkzmDQWIBxni-34">
          <mxGeometry width="50" height="50" relative="1" as="geometry">
            <mxPoint x="525" y="560" as="sourcePoint" />
            <mxPoint x="597" y="545" as="targetPoint" />
          </mxGeometry>
        </mxCell>
        <mxCell id="Zyzf6QsQvkzmDQWIBxni-36" value="" style="group" vertex="1" connectable="0" parent="1">
          <mxGeometry x="505" y="750" width="57" height="89" as="geometry" />
        </mxCell>
        <mxCell id="Zyzf6QsQvkzmDQWIBxni-37" value="&lt;font style=&quot;font-size: 23px;&quot;&gt;●&lt;/font&gt;" style="rounded=0;whiteSpace=wrap;html=1;fillColor=#1ba1e2;fontColor=#ffffff;strokeColor=#006EAF;" vertex="1" parent="Zyzf6QsQvkzmDQWIBxni-36">
          <mxGeometry y="25" width="46" height="40" as="geometry" />
        </mxCell>
        <mxCell id="Zyzf6QsQvkzmDQWIBxni-38" value="x" style="text;html=1;align=center;verticalAlign=middle;resizable=0;points=[];autosize=1;strokeColor=none;fillColor=none;" vertex="1" parent="Zyzf6QsQvkzmDQWIBxni-36">
          <mxGeometry x="7" width="30" height="30" as="geometry" />
        </mxCell>
        <mxCell id="Zyzf6QsQvkzmDQWIBxni-39" value="int*" style="text;html=1;align=center;verticalAlign=middle;resizable=0;points=[];autosize=1;strokeColor=none;fillColor=none;" vertex="1" parent="Zyzf6QsQvkzmDQWIBxni-36">
          <mxGeometry x="17" y="59" width="40" height="30" as="geometry" />
        </mxCell>
        <mxCell id="Zyzf6QsQvkzmDQWIBxni-40" value="" style="group" vertex="1" connectable="0" parent="1">
          <mxGeometry x="602" y="750" width="64" height="93" as="geometry" />
        </mxCell>
        <mxCell id="Zyzf6QsQvkzmDQWIBxni-41" value="" style="group" vertex="1" connectable="0" parent="Zyzf6QsQvkzmDQWIBxni-40">
          <mxGeometry y="24" width="64" height="69" as="geometry" />
        </mxCell>
        <mxCell id="Zyzf6QsQvkzmDQWIBxni-42" value="42" style="rounded=0;whiteSpace=wrap;html=1;fillColor=#a20025;fontColor=#ffffff;strokeColor=#6F0000;" vertex="1" parent="Zyzf6QsQvkzmDQWIBxni-41">
          <mxGeometry width="46" height="40" as="geometry" />
        </mxCell>
        <mxCell id="Zyzf6QsQvkzmDQWIBxni-43" value="" style="endArrow=classic;html=1;rounded=0;entryX=0;entryY=0;entryDx=0;entryDy=0;" edge="1" parent="1" target="Zyzf6QsQvkzmDQWIBxni-42">
          <mxGeometry width="50" height="50" relative="1" as="geometry">
            <mxPoint x="530" y="795" as="sourcePoint" />
            <mxPoint x="602" y="780" as="targetPoint" />
          </mxGeometry>
        </mxCell>
        <mxCell id="Zyzf6QsQvkzmDQWIBxni-44" value="&lt;font face=&quot;Courier New&quot;&gt;int g = 42;&lt;/font&gt;&lt;div&gt;&lt;br&gt;&lt;/div&gt;&lt;div&gt;&lt;div&gt;&lt;font face=&quot;Courier New&quot;&gt;void b(){&lt;/font&gt;&lt;/div&gt;&lt;div&gt;&lt;font face=&quot;Courier New&quot;&gt;&lt;span style=&quot;white-space-collapse: preserve;&quot;&gt;&#x9;&lt;/span&gt;&lt;span style=&quot;background-color: transparent; color: light-dark(rgb(0, 0, 0), rgb(255, 255, 255));&quot;&gt;int *x = malloc(sizeof(int));&lt;/span&gt;&lt;br&gt;&lt;/font&gt;&lt;/div&gt;&lt;div&gt;&lt;font face=&quot;Courier New&quot;&gt;&lt;span style=&quot;white-space-collapse: preserve;&quot;&gt;&#x9;&lt;/span&gt;*x = 42;&amp;nbsp;&lt;/font&gt;&lt;span style=&quot;font-family: &amp;quot;Courier New&amp;quot;; background-color: transparent; color: light-dark(rgb(0, 0, 0), rgb(255, 255, 255));&quot;&gt;⬅️&lt;/span&gt;&lt;/div&gt;&lt;div&gt;&lt;font face=&quot;Courier New&quot;&gt;&lt;span style=&quot;white-space-collapse: preserve;&quot;&gt;&#x9;&lt;/span&gt;free(x);&lt;/font&gt;&lt;span style=&quot;font-family: &amp;quot;Courier New&amp;quot;; background-color: transparent; color: light-dark(rgb(0, 0, 0), rgb(255, 255, 255));&quot;&gt;&amp;nbsp;&lt;/span&gt;&lt;/div&gt;&lt;div&gt;&lt;font face=&quot;Courier New&quot;&gt;}&lt;/font&gt;&lt;/div&gt;&lt;/div&gt;&lt;div&gt;&lt;font face=&quot;Courier New&quot;&gt;&lt;br&gt;&lt;/font&gt;&lt;/div&gt;&lt;div&gt;&lt;font face=&quot;Courier New&quot;&gt;void a(){&lt;/font&gt;&lt;/div&gt;&lt;div&gt;&lt;font face=&quot;Courier New&quot;&gt;&lt;span style=&quot;white-space: pre;&quot;&gt;&#x9;&lt;/span&gt;int *x&lt;/font&gt;&lt;span style=&quot;font-family: &amp;quot;Courier New&amp;quot;; background-color: transparent; color: light-dark(rgb(0, 0, 0), rgb(255, 255, 255));&quot;&gt;&amp;nbsp;= malloc(sizeof(int));&lt;/span&gt;&lt;/div&gt;&lt;div&gt;&lt;font face=&quot;Courier New&quot;&gt;&lt;span style=&quot;white-space: pre;&quot;&gt;&#x9;&lt;/span&gt;*x = 39;&lt;/font&gt;&lt;/div&gt;&lt;div&gt;&lt;font face=&quot;Courier New&quot;&gt;&lt;br&gt;&lt;/font&gt;&lt;/div&gt;&lt;div&gt;&lt;font face=&quot;Courier New&quot;&gt;&lt;span style=&quot;white-space: pre;&quot;&gt;&#x9;&lt;/span&gt;if(g &amp;gt; 40){&lt;br&gt;&lt;/font&gt;&lt;/div&gt;&lt;div&gt;&lt;div&gt;&lt;font face=&quot;Courier New&quot;&gt;&lt;span style=&quot;white-space-collapse: preserve;&quot;&gt;&#x9;&lt;/span&gt;&lt;span style=&quot;white-space-collapse: preserve;&quot;&gt;&#x9;&lt;/span&gt;g = *x;&lt;/font&gt;&lt;/div&gt;&lt;/div&gt;&lt;div&gt;&lt;font face=&quot;Courier New&quot;&gt;&lt;span style=&quot;white-space: pre;&quot;&gt;&#x9;&lt;/span&gt;&lt;span style=&quot;white-space: pre;&quot;&gt;&#x9;&lt;/span&gt;a();&lt;br&gt;&lt;/font&gt;&lt;/div&gt;&lt;div&gt;&lt;span style=&quot;font-family: &amp;quot;Courier New&amp;quot;; background-color: transparent; color: light-dark(rgb(0, 0, 0), rgb(255, 255, 255)); white-space-collapse: preserve;&quot;&gt;&#x9;&lt;/span&gt;&lt;span style=&quot;font-family: &amp;quot;Courier New&amp;quot;; background-color: transparent; color: light-dark(rgb(0, 0, 0), rgb(255, 255, 255));&quot;&gt;}else{&lt;/span&gt;&lt;br&gt;&lt;/div&gt;&lt;div&gt;&lt;font face=&quot;Courier New&quot;&gt;&lt;span style=&quot;white-space: pre;&quot;&gt;&#x9;&lt;span style=&quot;white-space: pre;&quot;&gt;&#x9;&lt;/span&gt;b();&lt;/span&gt;&lt;br&gt;&lt;/font&gt;&lt;/div&gt;&lt;div&gt;&lt;font face=&quot;Courier New&quot;&gt;&lt;span style=&quot;white-space: pre;&quot;&gt;&#x9;&lt;/span&gt;}&lt;br&gt;&lt;/font&gt;&lt;/div&gt;&lt;div&gt;&lt;font face=&quot;Courier New&quot;&gt;&lt;br&gt;&lt;/font&gt;&lt;/div&gt;&lt;div&gt;&lt;font face=&quot;Courier New&quot;&gt;&lt;span style=&quot;white-space: pre;&quot;&gt;&#x9;&lt;/span&gt;free(x);&lt;br&gt;&lt;/font&gt;&lt;/div&gt;&lt;div&gt;&lt;font face=&quot;Courier New&quot;&gt;}&lt;/font&gt;&lt;/div&gt;&lt;div&gt;&lt;font face=&quot;Courier New&quot;&gt;&lt;br&gt;&lt;/font&gt;&lt;/div&gt;&lt;div&gt;&lt;font face=&quot;Courier New&quot;&gt;int main(){&lt;/font&gt;&lt;/div&gt;&lt;div&gt;&lt;font face=&quot;Courier New&quot;&gt;&lt;span style=&quot;white-space: pre;&quot;&gt;&#x9;&lt;/span&gt;int y = 42;&lt;br&gt;&lt;/font&gt;&lt;/div&gt;&lt;div&gt;&lt;font face=&quot;Courier New&quot;&gt;&lt;span style=&quot;white-space: pre;&quot;&gt;&#x9;&lt;/span&gt;int* ptr = &amp;amp;y;&lt;br&gt;&lt;/font&gt;&lt;/div&gt;&lt;div&gt;&lt;font face=&quot;Courier New&quot;&gt;&lt;span style=&quot;white-space: pre;&quot;&gt;&#x9;&lt;/span&gt;a();&lt;br&gt;&lt;/font&gt;&lt;/div&gt;&lt;div&gt;&lt;font face=&quot;Courier New&quot;&gt;}&lt;/font&gt;&lt;/div&gt;" style="text;html=1;align=left;verticalAlign=middle;resizable=0;points=[];autosize=1;strokeColor=none;fillColor=none;" vertex="1" parent="1">
          <mxGeometry x="175" y="283" width="290" height="440" as="geometry" />
        </mxCell>
        <mxCell id="Zyzf6QsQvkzmDQWIBxni-45" value="" style="rounded=0;whiteSpace=wrap;html=1;strokeColor=light-dark(#000000,#575757);" vertex="1" parent="1">
          <mxGeometry x="485" y="631" width="190" height="90" as="geometry" />
        </mxCell>
        <mxCell id="Zyzf6QsQvkzmDQWIBxni-46" value="a:2" style="text;html=1;align=left;verticalAlign=middle;resizable=0;points=[];autosize=1;strokeColor=none;fillColor=none;" vertex="1" parent="1">
          <mxGeometry x="485" y="603" width="40" height="30" as="geometry" />
        </mxCell>
        <mxCell id="Zyzf6QsQvkzmDQWIBxni-47" value="" style="group" vertex="1" connectable="0" parent="1">
          <mxGeometry x="505" y="633" width="57" height="89" as="geometry" />
        </mxCell>
        <mxCell id="Zyzf6QsQvkzmDQWIBxni-48" value="&lt;font style=&quot;font-size: 23px;&quot;&gt;●&lt;/font&gt;" style="rounded=0;whiteSpace=wrap;html=1;fillColor=#1ba1e2;fontColor=#ffffff;strokeColor=#006EAF;" vertex="1" parent="Zyzf6QsQvkzmDQWIBxni-47">
          <mxGeometry y="25" width="46" height="40" as="geometry" />
        </mxCell>
        <mxCell id="Zyzf6QsQvkzmDQWIBxni-49" value="x" style="text;html=1;align=center;verticalAlign=middle;resizable=0;points=[];autosize=1;strokeColor=none;fillColor=none;" vertex="1" parent="Zyzf6QsQvkzmDQWIBxni-47">
          <mxGeometry x="7" width="30" height="30" as="geometry" />
        </mxCell>
        <mxCell id="Zyzf6QsQvkzmDQWIBxni-50" value="int*" style="text;html=1;align=center;verticalAlign=middle;resizable=0;points=[];autosize=1;strokeColor=none;fillColor=none;" vertex="1" parent="Zyzf6QsQvkzmDQWIBxni-47">
          <mxGeometry x="17" y="59" width="40" height="30" as="geometry" />
        </mxCell>
        <mxCell id="Zyzf6QsQvkzmDQWIBxni-51" value="" style="group" vertex="1" connectable="0" parent="1">
          <mxGeometry x="602" y="633" width="64" height="93" as="geometry" />
        </mxCell>
        <mxCell id="Zyzf6QsQvkzmDQWIBxni-52" value="" style="group" vertex="1" connectable="0" parent="Zyzf6QsQvkzmDQWIBxni-51">
          <mxGeometry y="24" width="64" height="69" as="geometry" />
        </mxCell>
        <mxCell id="Zyzf6QsQvkzmDQWIBxni-53" value="39" style="rounded=0;whiteSpace=wrap;html=1;fillColor=#a20025;fontColor=#ffffff;strokeColor=#6F0000;" vertex="1" parent="Zyzf6QsQvkzmDQWIBxni-52">
          <mxGeometry width="46" height="40" as="geometry" />
        </mxCell>
        <mxCell id="Zyzf6QsQvkzmDQWIBxni-54" value="" style="endArrow=classic;html=1;rounded=0;entryX=0;entryY=0;entryDx=0;entryDy=0;" edge="1" parent="1" target="Zyzf6QsQvkzmDQWIBxni-53">
          <mxGeometry width="50" height="50" relative="1" as="geometry">
            <mxPoint x="525" y="678" as="sourcePoint" />
            <mxPoint x="597" y="663" as="targetPoint" />
          </mxGeometry>
        </mxCell>
      </root>
    </mxGraphModel>
  </diagram>
</mxfile>
